<svg width="32" height="32" viewBox="0 0 32 32" fill="none" xmlns="http://www.w3.org/2000/svg">
<rect width="32" height="32" fill="white"/>
<rect x="6.66663" y="6.6665" width="18.6667" height="18.6667" fill="#051848"/>
<path d="M21.3333 2.6665H10.6666C6.25463 2.6665 2.66663 6.2545 2.66663 10.6665V27.9998C2.66663 28.3535 2.8071 28.6926 3.05715 28.9426C3.3072 29.1927 3.64634 29.3332 3.99996 29.3332H21.3333C25.7453 29.3332 29.3333 25.7452 29.3333 21.3332V10.6665C29.3333 6.2545 25.7453 2.6665 21.3333 2.6665ZM11.9986 22.6665H9.33329V20.0012L16.7066 12.6385L19.372 15.3038L11.9986 22.6665ZM20.6293 14.0465L17.964 11.3812L19.996 9.3505L22.6613 12.0158L20.6293 14.0465Z" fill="#FFD452"/>
</svg>
